<svg xmlns="http://www.w3.org/2000/svg">
    <symbol id="bell" viewBox="0 0 16 22">
        <g>
            <path d="M15.1249 17H14.5624V9.03125C14.5624 5.72422 12.1179 2.99141 8.93744 2.53672V1.625C8.93744 1.10703 8.51791 0.6875 7.99994 0.6875C7.48197 0.6875 7.06244 1.10703 7.06244 1.625V2.53672C3.88197 2.99141 1.43744 5.72422 1.43744 9.03125V17H0.874939C0.460095 17 0.124939 17.3352 0.124939 17.75V18.5C0.124939 18.6031 0.209314 18.6875 0.312439 18.6875H5.37494C5.37494 20.1359 6.5515 21.3125 7.99994 21.3125C9.44838 21.3125 10.6249 20.1359 10.6249 18.6875H15.6874C15.7906 18.6875 15.8749 18.6031 15.8749 18.5V17.75C15.8749 17.3352 15.5398 17 15.1249 17ZM7.99994 19.8125C7.37885 19.8125 6.87494 19.3086 6.87494 18.6875H9.12494C9.12494 19.3086 8.62103 19.8125 7.99994 19.8125ZM3.12494 17V9.03125C3.12494 7.72813 3.63119 6.50469 4.55228 5.58359C5.47338 4.6625 6.69682 4.15625 7.99994 4.15625C9.30307 4.15625 10.5265 4.6625 11.4476 5.58359C12.3687 6.50469 12.8749 7.72813 12.8749 9.03125V17H3.12494Z"/>
        </g>
    </symbol>
    <symbol id="friends" viewBox="0 0 20 20">
        <g>
            <path d="M18.9061 16.0937H17.0311V14.2187C17.0311 14.1156 16.9467 14.0312 16.8436 14.0312H15.7186C15.6155 14.0312 15.5311 14.1156 15.5311 14.2187V16.0937H13.6561C13.553 16.0937 13.4686 16.1781 13.4686 16.2812V17.4062C13.4686 17.5093 13.553 17.5937 13.6561 17.5937H15.5311V19.4687C15.5311 19.5718 15.6155 19.6562 15.7186 19.6562H16.8436C16.9467 19.6562 17.0311 19.5718 17.0311 19.4687V17.5937H18.9061C19.0092 17.5937 19.0936 17.5093 19.0936 17.4062V16.2812C19.0936 16.1781 19.0092 16.0937 18.9061 16.0937ZM6.75376 9.68122C6.73266 9.47731 6.72095 9.27106 6.72095 9.06247C6.72095 8.68981 6.7561 8.32653 6.82173 7.97263C6.83813 7.88825 6.7936 7.80153 6.71626 7.76638C6.39751 7.62341 6.10454 7.42653 5.85141 7.1781C5.55315 6.88889 5.31844 6.54069 5.16227 6.15571C5.0061 5.77073 4.93189 5.35742 4.94438 4.94216C4.96548 4.18981 5.26782 3.47497 5.79516 2.93591C6.37407 2.34294 7.1522 2.0195 7.97954 2.02888C8.7272 2.03591 9.44907 2.32419 9.99516 2.83513C10.1803 3.00856 10.3397 3.20075 10.4733 3.407C10.5202 3.47966 10.6116 3.51013 10.6913 3.482C11.1038 3.33903 11.5397 3.23825 11.9874 3.19138C12.1186 3.17731 12.1936 3.03669 12.135 2.9195C11.3733 1.41247 9.81704 0.371845 8.01704 0.34372C5.42016 0.303876 3.25454 2.43434 3.25454 5.03122C3.25454 6.50309 3.93188 7.8156 4.9936 8.67575C4.24829 9.02028 3.56157 9.49606 2.96626 10.0914C1.68188 11.3734 0.95532 13.0656 0.908445 14.8726C0.907819 14.8976 0.912207 14.9225 0.921349 14.9458C0.930492 14.9691 0.944204 14.9903 0.961677 15.0082C0.979151 15.0262 1.00003 15.0404 1.02309 15.0501C1.04615 15.0598 1.07092 15.0648 1.09595 15.0648H2.41079C2.51157 15.0648 2.59595 14.9851 2.59829 14.8843C2.64282 13.525 3.1936 12.2523 4.16157 11.2867C4.85063 10.5976 5.69438 10.1195 6.61548 9.88747C6.70454 9.86169 6.76548 9.77497 6.75376 9.68122V9.68122ZM17.3124 9.06247C17.3124 6.49841 15.2522 4.41481 12.6975 4.37497C10.1006 4.33513 7.93735 6.4656 7.93735 9.06247C7.93735 10.5343 8.61704 11.8468 9.67641 12.707C8.92338 13.0561 8.23787 13.5353 7.65141 14.1226C6.36704 15.4047 5.64048 17.0968 5.5936 18.9015C5.59298 18.9265 5.59736 18.9514 5.60651 18.9747C5.61565 18.998 5.62936 19.0192 5.64683 19.0372C5.66431 19.0551 5.68519 19.0693 5.70825 19.079C5.73131 19.0887 5.75608 19.0937 5.7811 19.0937H7.0936C7.19438 19.0937 7.27876 19.014 7.2811 18.9132C7.32563 17.5539 7.87641 16.2812 8.84438 15.3156C9.85454 14.3054 11.1952 13.75 12.6249 13.75C15.2124 13.75 17.3124 11.6523 17.3124 9.06247ZM14.7459 11.1836C14.1788 11.7508 13.4264 12.0625 12.6249 12.0625C11.8233 12.0625 11.0709 11.7508 10.5038 11.1836C10.2207 10.902 9.99709 10.5665 9.84612 10.1969C9.69514 9.82733 9.6199 9.4312 9.62485 9.032C9.63188 8.26325 9.93891 7.52028 10.4756 6.9695C11.0381 6.39294 11.7905 6.07184 12.5944 6.06247C13.3889 6.05544 14.16 6.36481 14.7272 6.92028C15.3084 7.48981 15.6272 8.25153 15.6272 9.06247C15.6249 9.86403 15.3131 10.6164 14.7459 11.1836V11.1836Z"/>
        </g>
    </symbol>
    <symbol id="chat" viewBox="0 0 22 22">
        <g>
            <path d="M9.87516 11C9.87516 11.2984 9.99369 11.5845 10.2047 11.7955C10.4156 12.0065 10.7018 12.125 11.0002 12.125C11.2985 12.125 11.5847 12.0065 11.7957 11.7955C12.0066 11.5845 12.1252 11.2984 12.1252 11C12.1252 10.7016 12.0066 10.4155 11.7957 10.2045C11.5847 9.99353 11.2985 9.875 11.0002 9.875C10.7018 9.875 10.4156 9.99353 10.2047 10.2045C9.99369 10.4155 9.87516 10.7016 9.87516 11ZM14.5627 11C14.5627 11.2984 14.6812 11.5845 14.8922 11.7955C15.1031 12.0065 15.3893 12.125 15.6877 12.125C15.986 12.125 16.2722 12.0065 16.4832 11.7955C16.6941 11.5845 16.8127 11.2984 16.8127 11C16.8127 10.7016 16.6941 10.4155 16.4832 10.2045C16.2722 9.99353 15.986 9.875 15.6877 9.875C15.3893 9.875 15.1031 9.99353 14.8922 10.2045C14.6812 10.4155 14.5627 10.7016 14.5627 11ZM5.18766 11C5.18766 11.2984 5.30619 11.5845 5.51717 11.7955C5.72815 12.0065 6.0143 12.125 6.31266 12.125C6.61103 12.125 6.89718 12.0065 7.10816 11.7955C7.31914 11.5845 7.43766 11.2984 7.43766 11C7.43766 10.7016 7.31914 10.4155 7.10816 10.2045C6.89718 9.99353 6.61103 9.875 6.31266 9.875C6.0143 9.875 5.72815 9.99353 5.51717 10.2045C5.30619 10.4155 5.18766 10.7016 5.18766 11ZM20.6845 6.93125C20.1549 5.67266 19.3955 4.54297 18.4275 3.57266C17.4663 2.60796 16.3252 1.84114 15.0689 1.31563C13.7799 0.774219 12.4111 0.5 11.0002 0.5H10.9533C9.53298 0.507031 8.1572 0.788281 6.86344 1.34141C5.61788 1.87232 4.4875 2.64049 3.53532 3.60312C2.57673 4.57109 1.82438 5.69609 1.30407 6.95C0.765007 8.24844 0.493132 9.62891 0.500163 11.0492C0.508116 12.6769 0.893191 14.2806 1.62516 15.7344V19.2969C1.62516 19.5828 1.73875 19.857 1.94094 20.0592C2.14313 20.2614 2.41735 20.375 2.70329 20.375H6.26813C7.72195 21.107 9.32562 21.492 10.9533 21.5H11.0025C12.4064 21.5 13.7681 21.2281 15.0502 20.6961C16.3001 20.1768 17.437 19.419 18.397 18.4648C19.365 17.5063 20.1267 16.3859 20.6588 15.1367C21.2119 13.843 21.4931 12.4672 21.5002 11.0469C21.5072 9.61953 21.2306 8.23437 20.6845 6.93125ZM17.1431 17.1969C15.5002 18.8234 13.3205 19.7188 11.0002 19.7188H10.9603C9.54704 19.7117 8.14313 19.3602 6.90329 18.6992L6.70641 18.5938H3.40641V15.2938L3.30094 15.0969C2.64001 13.857 2.28844 12.4531 2.28141 11.0398C2.27204 8.70313 3.16501 6.50937 4.80329 4.85703C6.43923 3.20469 8.62595 2.29062 10.9627 2.28125H11.0025C12.1744 2.28125 13.3111 2.50859 14.3822 2.95859C15.4275 3.39687 16.365 4.02734 17.1713 4.83359C17.9752 5.6375 18.608 6.57734 19.0463 7.62266C19.5009 8.70547 19.7283 9.85391 19.7236 11.0398C19.7095 13.3742 18.7931 15.5609 17.1431 17.1969Z"/>
        </g>
    </symbol>
    <symbol id="info" viewBox="0 0 24 24">
        <g>
            <path d="M12.0001 1.5C6.20162 1.5 1.50006 6.20156 1.50006 12C1.50006 17.7984 6.20162 22.5 12.0001 22.5C17.7985 22.5 22.5001 17.7984 22.5001 12C22.5001 6.20156 17.7985 1.5 12.0001 1.5ZM12.0001 20.7188C7.186 20.7188 3.28131 16.8141 3.28131 12C3.28131 7.18594 7.186 3.28125 12.0001 3.28125C16.8141 3.28125 20.7188 7.18594 20.7188 12C20.7188 16.8141 16.8141 20.7188 12.0001 20.7188Z" fill="#002766"/>
            <path d="M10.8751 7.875C10.8751 8.17337 10.9936 8.45952 11.2046 8.6705C11.4155 8.88147 11.7017 9 12.0001 9C12.2984 9 12.5846 8.88147 12.7956 8.6705C13.0065 8.45952 13.1251 8.17337 13.1251 7.875C13.1251 7.57663 13.0065 7.29048 12.7956 7.0795C12.5846 6.86853 12.2984 6.75 12.0001 6.75C11.7017 6.75 11.4155 6.86853 11.2046 7.0795C10.9936 7.29048 10.8751 7.57663 10.8751 7.875ZM12.5626 10.5H11.4376C11.3344 10.5 11.2501 10.5844 11.2501 10.6875V17.0625C11.2501 17.1656 11.3344 17.25 11.4376 17.25H12.5626C12.6657 17.25 12.7501 17.1656 12.7501 17.0625V10.6875C12.7501 10.5844 12.6657 10.5 12.5626 10.5Z"/>
        </g>
    </symbol>
    <symbol id="dropdown" viewBox="0 0 12 8">
        <g>
            <path d="M11.1309 0.6875H0.868425C0.560612 0.6875 0.388737 1.0125 0.579362 1.23437L5.71061 7.18437C5.85749 7.35469 6.1403 7.35469 6.28874 7.18437L11.42 1.23437C11.6106 1.0125 11.4387 0.6875 11.1309 0.6875Z"/>
        </g>
    </symbol>
    <symbol id="user" viewBox="0 0 16 16">
        <g>
            <path d="M14.7679 12.9141C14.3995 12.0414 13.8648 11.2486 13.1937 10.5801C12.5246 9.90959 11.7321 9.37501 10.8597 9.00586C10.8519 9.00195 10.8441 9 10.8363 8.99609C12.0531 8.11719 12.8441 6.68555 12.8441 5.07031C12.8441 2.39453 10.6761 0.226562 8.00035 0.226562C5.32457 0.226562 3.1566 2.39453 3.1566 5.07031C3.1566 6.68555 3.94762 8.11719 5.16442 8.99805C5.1566 9.00195 5.14879 9.00391 5.14098 9.00781C4.26598 9.37695 3.48082 9.90625 2.80699 10.582C2.13651 11.2511 1.60193 12.0437 1.23278 12.916C0.870124 13.77 0.674537 14.6856 0.656604 15.6133C0.656083 15.6341 0.659739 15.6549 0.667358 15.6743C0.674976 15.6937 0.686403 15.7114 0.700964 15.7263C0.715526 15.7412 0.732927 15.7531 0.752143 15.7612C0.77136 15.7693 0.792002 15.7734 0.812854 15.7734H1.98473C2.07067 15.7734 2.13903 15.7051 2.14098 15.6211C2.18004 14.1133 2.78551 12.7012 3.85582 11.6309C4.96324 10.5234 6.43395 9.91406 8.00035 9.91406C9.56676 9.91406 11.0375 10.5234 12.1449 11.6309C13.2152 12.7012 13.8207 14.1133 13.8597 15.6211C13.8617 15.707 13.93 15.7734 14.016 15.7734H15.1879C15.2087 15.7734 15.2293 15.7693 15.2486 15.7612C15.2678 15.7531 15.2852 15.7412 15.2997 15.7263C15.3143 15.7114 15.3257 15.6937 15.3333 15.6743C15.341 15.6549 15.3446 15.6341 15.3441 15.6133C15.3246 14.6797 15.1312 13.7715 14.7679 12.9141ZM8.00035 8.42969C7.10387 8.42969 6.26012 8.08008 5.62535 7.44531C4.99059 6.81055 4.64098 5.9668 4.64098 5.07031C4.64098 4.17383 4.99059 3.33008 5.62535 2.69531C6.26012 2.06055 7.10387 1.71094 8.00035 1.71094C8.89684 1.71094 9.74059 2.06055 10.3754 2.69531C11.0101 3.33008 11.3597 4.17383 11.3597 5.07031C11.3597 5.9668 11.0101 6.81055 10.3754 7.44531C9.74059 8.08008 8.89684 8.42969 8.00035 8.42969Z" fill="white"/>
        </g>
    </symbol>
    <symbol id="news" viewBox="0 0 24 24">
        <g>
            <path d="M20.625 2.625H3.375C2.96016 2.625 2.625 2.96016 2.625 3.375V20.625C2.625 21.0398 2.96016 21.375 3.375 21.375H20.625C21.0398 21.375 21.375 21.0398 21.375 20.625V3.375C21.375 2.96016 21.0398 2.625 20.625 2.625ZM19.6875 19.6875H4.3125V4.3125H19.6875V19.6875Z" fill="#1890FF"/>
            <path d="M4.3125 19.6875H19.6875V4.3125H4.3125V19.6875ZM11.3438 8.0625C11.3438 7.95937 11.4281 7.875 11.5312 7.875H15.8438C15.9469 7.875 16.0312 7.95937 16.0312 8.0625V9.1875C16.0312 9.29063 15.9469 9.375 15.8438 9.375H11.5312C11.4281 9.375 11.3438 9.29063 11.3438 9.1875V8.0625ZM11.3438 11.4375C11.3438 11.3344 11.4281 11.25 11.5312 11.25H15.8438C15.9469 11.25 16.0312 11.3344 16.0312 11.4375V12.5625C16.0312 12.6656 15.9469 12.75 15.8438 12.75H11.5312C11.4281 12.75 11.3438 12.6656 11.3438 12.5625V11.4375ZM11.3438 14.8125C11.3438 14.7094 11.4281 14.625 11.5312 14.625H15.8438C15.9469 14.625 16.0312 14.7094 16.0312 14.8125V15.9375C16.0312 16.0406 15.9469 16.125 15.8438 16.125H11.5312C11.4281 16.125 11.3438 16.0406 11.3438 15.9375V14.8125ZM8.90625 7.6875C9.42422 7.6875 9.84375 8.10703 9.84375 8.625C9.84375 9.14297 9.42422 9.5625 8.90625 9.5625C8.38828 9.5625 7.96875 9.14297 7.96875 8.625C7.96875 8.10703 8.38828 7.6875 8.90625 7.6875ZM8.90625 11.0625C9.42422 11.0625 9.84375 11.482 9.84375 12C9.84375 12.518 9.42422 12.9375 8.90625 12.9375C8.38828 12.9375 7.96875 12.518 7.96875 12C7.96875 11.482 8.38828 11.0625 8.90625 11.0625ZM8.90625 14.4375C9.42422 14.4375 9.84375 14.857 9.84375 15.375C9.84375 15.893 9.42422 16.3125 8.90625 16.3125C8.38828 16.3125 7.96875 15.893 7.96875 15.375C7.96875 14.857 8.38828 14.4375 8.90625 14.4375Z" fill="#E6F7FF"/>
            <path d="M7.96875 15.375C7.96875 15.6236 8.06752 15.8621 8.24334 16.0379C8.41915 16.2137 8.65761 16.3125 8.90625 16.3125C9.15489 16.3125 9.39335 16.2137 9.56916 16.0379C9.74498 15.8621 9.84375 15.6236 9.84375 15.375C9.84375 15.1264 9.74498 14.8879 9.56916 14.7121C9.39335 14.5363 9.15489 14.4375 8.90625 14.4375C8.65761 14.4375 8.41915 14.5363 8.24334 14.7121C8.06752 14.8879 7.96875 15.1264 7.96875 15.375ZM7.96875 12C7.96875 12.2486 8.06752 12.4871 8.24334 12.6629C8.41915 12.8387 8.65761 12.9375 8.90625 12.9375C9.15489 12.9375 9.39335 12.8387 9.56916 12.6629C9.74498 12.4871 9.84375 12.2486 9.84375 12C9.84375 11.7514 9.74498 11.5129 9.56916 11.3371C9.39335 11.1613 9.15489 11.0625 8.90625 11.0625C8.65761 11.0625 8.41915 11.1613 8.24334 11.3371C8.06752 11.5129 7.96875 11.7514 7.96875 12ZM7.96875 8.625C7.96875 8.87364 8.06752 9.1121 8.24334 9.28791C8.41915 9.46373 8.65761 9.5625 8.90625 9.5625C9.15489 9.5625 9.39335 9.46373 9.56916 9.28791C9.74498 9.1121 9.84375 8.87364 9.84375 8.625C9.84375 8.37636 9.74498 8.1379 9.56916 7.96209C9.39335 7.78627 9.15489 7.6875 8.90625 7.6875C8.65761 7.6875 8.41915 7.78627 8.24334 7.96209C8.06752 8.1379 7.96875 8.37636 7.96875 8.625ZM11.5312 16.125H15.8438C15.9469 16.125 16.0312 16.0406 16.0312 15.9375V14.8125C16.0312 14.7094 15.9469 14.625 15.8438 14.625H11.5312C11.4281 14.625 11.3438 14.7094 11.3438 14.8125V15.9375C11.3438 16.0406 11.4281 16.125 11.5312 16.125ZM11.5312 12.75H15.8438C15.9469 12.75 16.0312 12.6656 16.0312 12.5625V11.4375C16.0312 11.3344 15.9469 11.25 15.8438 11.25H11.5312C11.4281 11.25 11.3438 11.3344 11.3438 11.4375V12.5625C11.3438 12.6656 11.4281 12.75 11.5312 12.75ZM11.5312 9.375H15.8438C15.9469 9.375 16.0312 9.29062 16.0312 9.1875V8.0625C16.0312 7.95937 15.9469 7.875 15.8438 7.875H11.5312C11.4281 7.875 11.3438 7.95937 11.3438 8.0625V9.1875C11.3438 9.29062 11.4281 9.375 11.5312 9.375Z" fill="#1890FF"/>
        </g>
    </symbol>
    <symbol id="messages" viewBox="0 0 24 24">
        <g>
            <path d="M18.1719 5.83371C17.3735 5.03264 16.426 4.39565 15.3828 3.95871C14.3129 3.50917 13.1637 3.27885 12.0031 3.28136H11.9633C9.62659 3.29074 7.43987 4.2048 5.80393 5.85714C4.16565 7.50949 3.27268 9.70324 3.28206 12.04C3.28909 13.4532 3.64065 14.8571 4.30159 16.097L4.40706 16.2939V19.5939H7.70706L7.90393 19.6993C9.14377 20.3603 10.5477 20.7118 11.961 20.7189H12.0008C14.3211 20.7189 16.5008 19.8235 18.1438 18.197C19.7938 16.561 20.7102 14.3743 20.7242 12.04C20.7289 10.854 20.5016 9.70558 20.0469 8.62277C19.6097 7.57975 18.9727 6.63229 18.1719 5.83371ZM7.31331 13.1251C7.01891 13.1191 6.73861 12.9979 6.53253 12.7876C6.32646 12.5773 6.21104 12.2946 6.21104 12.0001C6.21104 11.7057 6.32646 11.4229 6.53253 11.2126C6.73861 11.0023 7.01891 10.8811 7.31331 10.8751C7.6077 10.8811 7.88801 11.0023 8.09408 11.2126C8.30015 11.4229 8.41558 11.7057 8.41558 12.0001C8.41558 12.2946 8.30015 12.5773 8.09408 12.7876C7.88801 12.9979 7.6077 13.1191 7.31331 13.1251ZM12.0008 13.1251C11.7064 13.1191 11.4261 12.9979 11.22 12.7876C11.014 12.5773 10.8985 12.2946 10.8985 12.0001C10.8985 11.7057 11.014 11.4229 11.22 11.2126C11.4261 11.0023 11.7064 10.8811 12.0008 10.8751C12.2952 10.8811 12.5755 11.0023 12.7816 11.2126C12.9877 11.4229 13.1031 11.7057 13.1031 12.0001C13.1031 12.2946 12.9877 12.5773 12.7816 12.7876C12.5755 12.9979 12.2952 13.1191 12.0008 13.1251ZM16.6883 13.1251C16.3939 13.1191 16.1136 12.9979 15.9075 12.7876C15.7015 12.5773 15.586 12.2946 15.586 12.0001C15.586 11.7057 15.7015 11.4229 15.9075 11.2126C16.1136 11.0023 16.3939 10.8811 16.6883 10.8751C16.9827 10.8811 17.263 11.0023 17.4691 11.2126C17.6752 11.4229 17.7906 11.7057 17.7906 12.0001C17.7906 12.2946 17.6752 12.5773 17.4691 12.7876C17.263 12.9979 16.9827 13.1191 16.6883 13.1251Z" fill="#E6F7FF"/>
            <path d="M15.5625 12C15.5625 12.2984 15.681 12.5845 15.892 12.7955C16.103 13.0065 16.3891 13.125 16.6875 13.125C16.9859 13.125 17.272 13.0065 17.483 12.7955C17.694 12.5845 17.8125 12.2984 17.8125 12C17.8125 11.7016 17.694 11.4155 17.483 11.2045C17.272 10.9935 16.9859 10.875 16.6875 10.875C16.3891 10.875 16.103 10.9935 15.892 11.2045C15.681 11.4155 15.5625 11.7016 15.5625 12ZM6.1875 12C6.1875 12.2984 6.30603 12.5845 6.517 12.7955C6.72798 13.0065 7.01413 13.125 7.3125 13.125C7.61087 13.125 7.89702 13.0065 8.108 12.7955C8.31897 12.5845 8.4375 12.2984 8.4375 12C8.4375 11.7016 8.31897 11.4155 8.108 11.2045C7.89702 10.9935 7.61087 10.875 7.3125 10.875C7.01413 10.875 6.72798 10.9935 6.517 11.2045C6.30603 11.4155 6.1875 11.7016 6.1875 12Z"/>
            <path d="M21.6846 7.93125C21.1549 6.67266 20.3955 5.54297 19.4275 4.57266C18.4663 3.60796 17.3253 2.84114 16.0689 2.31563C14.7799 1.77422 13.4111 1.5 12.0002 1.5H11.9533C10.533 1.50703 9.15723 1.78828 7.86348 2.34141C6.61791 2.87232 5.48753 3.64049 4.53535 4.60312C3.57676 5.57109 2.82441 6.69609 2.3041 7.95C1.76504 9.24844 1.49316 10.6289 1.50019 12.0492C1.50815 13.6769 1.89322 15.2806 2.62519 16.7344V20.2969C2.62519 20.5828 2.73878 20.857 2.94097 21.0592C3.14316 21.2614 3.41738 21.375 3.70332 21.375H7.26816C8.72198 22.107 10.3257 22.492 11.9533 22.5H12.0025C13.4064 22.5 14.7682 22.2281 16.0502 21.6961C17.3002 21.1768 18.437 20.419 19.3971 19.4648C20.365 18.5063 21.1268 17.3859 21.6588 16.1367C22.2119 14.843 22.4932 13.4672 22.5002 12.0469C22.5072 10.6195 22.2307 9.23438 21.6846 7.93125ZM18.1432 18.1969C16.5002 19.8234 14.3205 20.7188 12.0002 20.7188H11.9604C10.5471 20.7117 9.14316 20.3602 7.90332 19.6992L7.70644 19.5938H4.40644V16.2938L4.30098 16.0969C3.64004 14.857 3.28848 13.4531 3.28144 12.0398C3.27207 9.70312 4.16504 7.50937 5.80332 5.85703C7.43926 4.20469 9.62598 3.29062 11.9627 3.28125H12.0025C13.1744 3.28125 14.3111 3.50859 15.3822 3.95859C16.4275 4.39687 17.365 5.02734 18.1713 5.83359C18.9752 6.6375 19.608 7.57734 20.0463 8.62266C20.501 9.70547 20.7283 10.8539 20.7236 12.0398C20.7096 14.3742 19.7932 16.5609 18.1432 18.1969Z"/>
            <path d="M10.875 12C10.875 12.2984 10.9935 12.5845 11.2045 12.7955C11.4155 13.0065 11.7016 13.125 12 13.125C12.2984 13.125 12.5845 13.0065 12.7955 12.7955C13.0065 12.5845 13.125 12.2984 13.125 12C13.125 11.7016 13.0065 11.4155 12.7955 11.2045C12.5845 10.9935 12.2984 10.875 12 10.875C11.7016 10.875 11.4155 10.9935 11.2045 11.2045C10.9935 11.4155 10.875 11.7016 10.875 12Z"/>
        </g>
    </symbol>
    <symbol id="marketplace" viewBox="0 0 20 20">
        <g>
            <path d="M18.6723 4.37734V1.375C18.6723 0.960156 18.3371 0.625 17.9223 0.625H2.07851C1.66366 0.625 1.32851 0.960156 1.32851 1.375V4.37734C0.937099 4.40078 0.625381 4.72656 0.625381 5.125V8.21172C0.62388 8.77901 0.738747 9.34058 0.962881 9.86172C1.06366 10.1008 1.18788 10.3258 1.32851 10.5391V18.625C1.32851 19.0375 1.66366 19.375 2.07851 19.375H17.9223C18.3371 19.375 18.6723 19.0398 18.6723 18.625V10.5391C18.8151 10.3252 18.9375 10.0985 19.0379 9.86172C19.2605 9.33906 19.3754 8.78359 19.3754 8.21172V5.125C19.3754 4.72656 19.0637 4.40078 18.6723 4.37734ZM3.01601 2.3125H16.9848V4.375H3.01601V2.3125ZM11.5004 17.6898H8.50038V15.25H11.5004V17.6898ZM16.9941 17.6898H13.0004V14.5C13.0004 14.0852 12.6652 13.75 12.2504 13.75H7.75038C7.33554 13.75 7.00038 14.0852 7.00038 14.5V17.6898H3.01601V12.0133C3.08397 12.0461 3.15429 12.0789 3.22694 12.107C3.7496 12.3273 4.30507 12.4375 4.87694 12.4375C5.44882 12.4375 6.00194 12.3273 6.52694 12.107C6.85038 11.9711 7.15507 11.7977 7.43397 11.5891C7.43866 11.5867 7.44335 11.5867 7.44804 11.5891C7.72781 11.7985 8.03248 11.9725 8.35507 12.107C8.87772 12.3273 9.43319 12.4375 10.0051 12.4375C10.5769 12.4375 11.1301 12.3273 11.6551 12.107C11.9785 11.9711 12.2832 11.7977 12.5621 11.5891C12.5668 11.5867 12.5715 11.5867 12.5762 11.5891C12.8559 11.7985 13.1606 11.9725 13.4832 12.107C14.0058 12.3273 14.5613 12.4375 15.1332 12.4375C15.7051 12.4375 16.2582 12.3273 16.7832 12.107C16.8535 12.0766 16.9238 12.0461 16.9941 12.0133V17.6898ZM17.6879 8.21172C17.6879 9.61328 16.5394 10.75 15.1262 10.75C14.1699 10.75 13.3355 10.232 12.8949 9.46328C12.8269 9.34609 12.7051 9.27344 12.5691 9.27344H12.5551C12.4215 9.27344 12.2973 9.34609 12.2293 9.46328C12.0044 9.85543 11.6798 10.1811 11.2883 10.4071C10.8968 10.6331 10.4524 10.7514 10.0004 10.75C9.04647 10.75 8.21444 10.2344 7.77382 9.46797C7.70351 9.34844 7.57694 9.27344 7.43866 9.27344C7.30038 9.27344 7.17147 9.34844 7.10351 9.46797C6.87734 9.85862 6.55224 10.1828 6.16096 10.4079C5.76967 10.6329 5.326 10.7509 4.8746 10.75C3.46132 10.75 2.31288 9.61328 2.31288 8.21172V6.07422C2.31288 6.06719 2.31757 6.0625 2.3246 6.0625H17.6762C17.6832 6.0625 17.6879 6.06719 17.6879 6.07422V8.21172Z" fill="#1890FF"/>
        </g>
    </symbol>
    <symbol id="winner-cup" viewBox="0 0 24 24">
        <g>
            <path d="M7.5 11.25C7.5 12.4008 7.94766 13.4836 8.76328 14.2992C9.57656 15.1148 10.6617 15.5625 11.8125 15.5625H12.1875C13.3383 15.5625 14.4211 15.1148 15.2367 14.2992C16.0523 13.4859 16.5 12.4008 16.5 11.25V4.3125H7.5V11.25ZM4.3125 8.25C4.3125 9.21094 4.94297 10.0266 5.8125 10.3031C4.94297 10.0242 4.3125 9.20859 4.3125 8.25ZM12.8438 17.2148C15.5859 16.9172 17.775 14.7703 18.1359 12.0469C17.7727 14.7703 15.5859 16.9148 12.8438 17.2148ZM5.86406 12.0469C6.225 14.7703 8.41406 16.9172 11.1562 17.2148C8.41406 16.9148 6.22734 14.7703 5.86406 12.0469Z" fill="#E6F7FF"/>
            <path d="M20.3438 3.75H18.1875V2.8125C18.1875 2.70937 18.1031 2.625 18 2.625H6C5.89687 2.625 5.8125 2.70937 5.8125 2.8125V3.75H3.65625C3.38275 3.75 3.12044 3.85865 2.92705 4.05205C2.73365 4.24544 2.625 4.50775 2.625 4.78125V8.25C2.625 10.1648 4.03125 11.7563 5.86406 12.0469C6.22734 14.7703 8.41406 16.9148 11.1562 17.2148V19.6805H6.5625C6.14766 19.6805 5.8125 20.0156 5.8125 20.4305V21.1875C5.8125 21.2906 5.89687 21.375 6 21.375H18C18.1031 21.375 18.1875 21.2906 18.1875 21.1875V20.4305C18.1875 20.0156 17.8523 19.6805 17.4375 19.6805H12.8438V17.2148C15.5859 16.9148 17.7727 14.7703 18.1359 12.0469C19.9688 11.7563 21.375 10.1648 21.375 8.25V4.78125C21.375 4.50775 21.2663 4.24544 21.073 4.05205C20.8796 3.85865 20.6173 3.75 20.3438 3.75ZM5.8125 10.3031C5.37714 10.1641 4.99723 9.89025 4.72762 9.52122C4.45801 9.15219 4.31264 8.70703 4.3125 8.25V5.4375H5.8125V10.3031ZM16.5 11.25C16.5 12.4008 16.0523 13.4859 15.2367 14.2992C14.4211 15.1148 13.3383 15.5625 12.1875 15.5625H11.8125C10.6617 15.5625 9.57656 15.1148 8.76328 14.2992C7.94766 13.4836 7.5 12.4008 7.5 11.25V4.3125H16.5V11.25ZM19.6875 8.25C19.6875 9.21094 19.057 10.0266 18.1875 10.3031V5.4375H19.6875V8.25Z" fill="#1890FF"/>
        </g>
    </symbol>
    <symbol id="pages" viewBox="0 0 20 20">
        <g>
            <path d="M18.625 5.14844H12.625V2.5C12.625 2.08516 12.2898 1.75 11.875 1.75H2.3125V0.8125C2.3125 0.709375 2.22812 0.625 2.125 0.625H0.8125C0.709375 0.625 0.625 0.709375 0.625 0.8125V19.1875C0.625 19.2906 0.709375 19.375 0.8125 19.375H2.125C2.22812 19.375 2.3125 19.2906 2.3125 19.1875V13H8.125V15.6484C8.125 16.0633 8.46016 16.3984 8.875 16.3984H18.625C19.0398 16.3984 19.375 16.0633 19.375 15.6484V5.89844C19.375 5.48359 19.0398 5.14844 18.625 5.14844ZM2.3125 11.3125V3.4375H10.9375V11.3125H2.3125ZM17.6875 14.7109H9.8125V13H12.4375C12.5406 13 12.625 12.9156 12.625 12.8125V6.83594H17.6875V14.7109Z" fill="#1890FF"/>
        </g>
    </symbol>
    <symbol id="groups" viewBox="0 0 18 18">
        <g>
            <path d="M9 0C4.02891 0 0 4.02891 0 9V17.4375C0 17.7492 0.250781 18 0.5625 18H4.875C5.70234 18 6.375 17.3273 6.375 16.5V11.625C6.375 10.7977 5.70234 10.125 4.875 10.125H1.6875V9C1.6875 4.96172 4.96172 1.6875 9 1.6875C13.0383 1.6875 16.3125 4.96172 16.3125 9V10.125H13.125C12.2977 10.125 11.625 10.7977 11.625 11.625V16.5C11.625 17.3273 12.2977 18 13.125 18H17.4375C17.7492 18 18 17.7492 18 17.4375V9C18 4.02891 13.9711 0 9 0ZM4.6875 11.8125V16.3125H1.6875V11.8125H4.6875ZM16.3125 16.3125H13.3125V11.8125H16.3125V16.3125Z" fill="#1890FF"/>
        </g>
    </symbol>
    <symbol id="events" viewBox="0 0 22 22">
        <g>
            <path d="M21.2883 10.9531C21.2883 10.9508 21.286 10.9508 21.286 10.9484L21.2438 10.8992C21.2414 10.8969 21.2391 10.8922 21.2344 10.8898C21.218 10.8711 21.1993 10.8523 21.1828 10.8336L12.1266 1.78436L11.5196 1.17733C11.3813 1.03993 11.1942 0.962818 10.9993 0.962818C10.8043 0.962818 10.6173 1.03993 10.4789 1.17733L0.815662 10.8359C0.641088 11.0096 0.512251 11.2238 0.440662 11.4594L0.426599 11.5086L0.419568 11.5344L0.412537 11.5625C0.407849 11.5789 0.405505 11.5953 0.403162 11.6117C0.403162 11.614 0.403162 11.6187 0.400818 11.6211C0.386755 11.6914 0.379724 11.7617 0.37738 11.8344V11.9117C0.37738 11.9234 0.37738 11.9351 0.379724 11.9469C0.379724 11.9586 0.379724 11.968 0.382068 11.9797C0.382068 11.9914 0.384412 12.0031 0.384412 12.0148C0.384412 12.0289 0.386755 12.043 0.389099 12.057C0.389099 12.064 0.391443 12.0711 0.391443 12.0781L0.398474 12.1367V12.139C0.518005 12.8539 1.15316 13.393 1.89847 13.393H2.89457V21.0312H19.1063V13.3976H20.1235C20.325 13.3976 20.5196 13.3578 20.6977 13.2828C20.8758 13.2078 21.0422 13.0976 21.1852 12.957C21.3248 12.8178 21.4355 12.6523 21.5107 12.4701C21.5859 12.2878 21.6243 12.0925 21.6235 11.8953C21.6235 11.5508 21.5063 11.2203 21.2883 10.9531ZM12.3118 19.3437H9.68676V14.5625H12.3118V19.3437ZM17.4188 11.7101V19.3437H13.8118V14C13.8118 13.482 13.3922 13.0625 12.8743 13.0625H9.12426C8.60629 13.0625 8.18676 13.482 8.18676 14V19.3437H4.57972V11.7101H2.32972L11.0016 3.0453L11.543 3.58671L19.6711 11.7101H17.4188Z" fill="#1890FF"/>
        </g>
    </symbol>
    <symbol id="games" viewBox="0 0 18 22">
        <g>
            <path d="M17.25 16.25C17.25 13.6344 15.7172 11.375 13.5 10.3227V6.43672C13.5 6.08281 13.3758 5.74063 13.1461 5.47109L9.57422 1.23594C9.42422 1.05781 9.21094 0.96875 9 0.96875C8.78906 0.96875 8.57578 1.05781 8.42578 1.23594L4.85391 5.47109C4.62578 5.74118 4.50043 6.08318 4.5 6.43672V10.3227C2.28281 11.375 0.75 13.6344 0.75 16.25H4.41797C4.36406 16.4187 4.33594 16.6016 4.33594 16.8078C4.33594 17.3258 4.51406 17.832 4.8375 18.2328C5.1015 18.5606 5.45115 18.8088 5.84766 18.95C6.38906 20.2156 7.61953 21.0312 9 21.0312C9.68203 21.0312 10.343 20.8297 10.9078 20.45C11.4609 20.0797 11.8898 19.5617 12.15 18.95C12.5463 18.8097 12.896 18.5623 13.1602 18.2352C13.484 17.8307 13.6609 17.3283 13.6617 16.8102C13.6617 16.6133 13.6359 16.4258 13.5891 16.2523L17.25 16.25ZM4.59375 14.6562H2.60625C2.73516 14.2742 2.91328 13.9063 3.13359 13.5641C3.51563 12.9734 4.0125 12.4742 4.59375 12.0945V14.6562ZM6.09375 10.3227V6.47187L9 3.02656L11.9062 6.47187V14.6562H6.09375V10.3227ZM11.7211 17.3797C11.5992 17.45 11.4586 17.4781 11.3203 17.4594L10.8633 17.4031L10.7977 17.8578C10.6711 18.7461 9.89766 19.4164 9 19.4164C8.10234 19.4164 7.32891 18.7461 7.20234 17.8578L7.13672 17.4008L6.67969 17.4594C6.54074 17.4759 6.40017 17.4472 6.27891 17.3773C6.075 17.2602 5.94844 17.0422 5.94844 16.8055C5.94844 16.557 6.08672 16.3508 6.29062 16.2477H11.7117C11.918 16.3531 12.0539 16.5594 12.0539 16.8055C12.0516 17.0445 11.925 17.2648 11.7211 17.3797ZM13.4062 14.6562V12.0945C13.991 12.4761 14.4886 12.9769 14.8664 13.5641C15.0867 13.9063 15.2648 14.2742 15.3937 14.6562H13.4062Z" fill="#1890FF"/>
        </g>
    </symbol>
    <symbol id="more" viewBox="0 0 16 16">
        <g>
            <path d="M13.1308 4.6875H2.8683C2.56049 4.6875 2.38862 5.0125 2.57924 5.23437L7.71049 11.1844C7.85736 11.3547 8.14018 11.3547 8.28861 11.1844L13.4199 5.23437C13.6105 5.0125 13.4386 4.6875 13.1308 4.6875Z" fill="#BFBFBF"/>
        </g>
    </symbol>
    <symbol id="img-img" viewBox="0 0 24 24">
        <g>
            <path d="M21.75 3.75H2.25C1.83516 3.75 1.5 4.08516 1.5 4.5V19.5C1.5 19.9148 1.83516 20.25 2.25 20.25H21.75C22.1648 20.25 22.5 19.9148 22.5 19.5V4.5C22.5 4.08516 22.1648 3.75 21.75 3.75ZM20.8125 18.5625H3.1875V17.6273L6.43359 13.7766L9.95156 17.9484L15.4242 11.4609L20.8125 17.85V18.5625ZM20.8125 15.5203L15.5672 9.3C15.4922 9.21094 15.3562 9.21094 15.2812 9.3L9.95156 15.6188L6.57656 11.618C6.50156 11.5289 6.36562 11.5289 6.29062 11.618L3.1875 15.2977V5.4375H20.8125V15.5203Z" fill="#1890FF"/>
            <path d="M9.95156 17.9484L6.43359 13.7766L3.1875 17.6273V18.5625H20.8125V17.85L15.4242 11.4609L9.95156 17.9484Z" fill="#E6F7FF"/>
            <path d="M3.1875 15.2977L6.29062 11.618C6.36562 11.5289 6.50156 11.5289 6.57656 11.618L9.95156 15.6188L15.2812 9.3C15.3563 9.21094 15.4922 9.21094 15.5672 9.3L20.8125 15.5203V5.4375H3.1875V15.2977ZM7.125 6.5625C7.39585 6.5625 7.66405 6.61585 7.91428 6.7195C8.16452 6.82315 8.39189 6.97507 8.58341 7.16659C8.77493 7.35811 8.92685 7.58548 9.0305 7.83572C9.13415 8.08595 9.1875 8.35415 9.1875 8.625C9.1875 8.89585 9.13415 9.16405 9.0305 9.41428C8.92685 9.66452 8.77493 9.89189 8.58341 10.0834C8.39189 10.2749 8.16452 10.4269 7.91428 10.5305C7.66405 10.6342 7.39585 10.6875 7.125 10.6875C6.57799 10.6875 6.05339 10.4702 5.66659 10.0834C5.2798 9.69661 5.0625 9.17201 5.0625 8.625C5.0625 8.07799 5.2798 7.55339 5.66659 7.16659C6.05339 6.7798 6.57799 6.5625 7.125 6.5625Z" fill="#E6F7FF"/>
            <path d="M6.46875 8.625C6.46875 8.79905 6.53789 8.96597 6.66096 9.08904C6.78403 9.21211 6.95095 9.28125 7.125 9.28125C7.29905 9.28125 7.46597 9.21211 7.58904 9.08904C7.71211 8.96597 7.78125 8.79905 7.78125 8.625C7.78125 8.45095 7.71211 8.28403 7.58904 8.16096C7.46597 8.03789 7.29905 7.96875 7.125 7.96875C6.95095 7.96875 6.78403 8.03789 6.66096 8.16096C6.53789 8.28403 6.46875 8.45095 6.46875 8.625Z" fill="#E6F7FF"/>
            <path d="M7.125 10.6875C7.39585 10.6875 7.66405 10.6342 7.91428 10.5305C8.16452 10.4269 8.39189 10.2749 8.58341 10.0834C8.77493 9.89189 8.92685 9.66452 9.0305 9.41428C9.13415 9.16405 9.1875 8.89585 9.1875 8.625C9.1875 8.35415 9.13415 8.08595 9.0305 7.83572C8.92685 7.58548 8.77493 7.35811 8.58341 7.16659C8.39189 6.97507 8.16452 6.82315 7.91428 6.7195C7.66405 6.61585 7.39585 6.5625 7.125 6.5625C6.57799 6.5625 6.05339 6.7798 5.66659 7.16659C5.2798 7.55339 5.0625 8.07799 5.0625 8.625C5.0625 9.17201 5.2798 9.69661 5.66659 10.0834C6.05339 10.4702 6.57799 10.6875 7.125 10.6875ZM7.125 7.96875C7.48828 7.96875 7.78125 8.26172 7.78125 8.625C7.78125 8.98828 7.48828 9.28125 7.125 9.28125C6.76172 9.28125 6.46875 8.98828 6.46875 8.625C6.46875 8.26172 6.76172 7.96875 7.125 7.96875Z" fill="#1890FF"/>
        </g>
    </symbol>
    <symbol id="tag-friends" viewBox="0 0 24 24">
        <g>
            <path d="M15.8976 15.0563C16.4648 14.7516 17.114 14.5781 17.8054 14.5781H17.8077C17.8781 14.5781 17.9109 14.4938 17.8593 14.4469C17.1403 13.8016 16.3189 13.2804 15.4288 12.9047C15.4195 12.9 15.4101 12.8977 15.4007 12.893C16.8562 11.8359 17.8031 10.118 17.8031 8.17969C17.8031 4.96875 15.2062 2.36719 12.0023 2.36719C8.79837 2.36719 6.20384 4.96875 6.20384 8.17969C6.20384 10.118 7.15072 11.8359 8.60853 12.893C8.59915 12.8977 8.58978 12.9 8.58041 12.9047C7.53275 13.3477 6.59291 13.9828 5.78431 14.7938C4.98039 15.5962 4.34036 16.5475 3.89994 17.5945C3.46661 18.6198 3.23274 19.7184 3.21087 20.8312C3.21025 20.8563 3.21464 20.8812 3.22378 20.9044C3.23292 20.9277 3.24663 20.949 3.26411 20.9669C3.28158 20.9848 3.30246 20.999 3.32552 21.0087C3.34858 21.0184 3.37335 21.0234 3.39837 21.0234H4.80228C4.90306 21.0234 4.98744 20.9414 4.98978 20.8406C5.03666 19.0312 5.76087 17.3367 7.04291 16.0523C8.36712 14.7234 10.1296 13.9922 12.0046 13.9922C13.3335 13.9922 14.6085 14.3602 15.7077 15.0492C15.736 15.067 15.7684 15.077 15.8017 15.0782C15.8351 15.0794 15.8681 15.0719 15.8976 15.0563ZM12.0046 12.2109C10.9312 12.2109 9.92103 11.7914 9.15931 11.0297C8.78453 10.6559 8.48742 10.2116 8.28509 9.72248C8.08276 9.23335 7.97921 8.70901 7.98041 8.17969C7.98041 7.10391 8.39994 6.09141 9.15931 5.32969C9.91869 4.56797 10.9288 4.14844 12.0046 4.14844C13.0804 4.14844 14.0882 4.56797 14.8499 5.32969C15.2247 5.70349 15.5218 6.14776 15.7242 6.63689C15.9265 7.12603 16.03 7.65036 16.0288 8.17969C16.0288 9.25547 15.6093 10.268 14.8499 11.0297C14.0882 11.7914 13.0781 12.2109 12.0046 12.2109ZM20.6249 17.7891H18.6562V15.8203C18.6562 15.7172 18.5718 15.6328 18.4687 15.6328H17.1562C17.0531 15.6328 16.9687 15.7172 16.9687 15.8203V17.7891H14.9999C14.8968 17.7891 14.8124 17.8734 14.8124 17.9766V19.2891C14.8124 19.3922 14.8968 19.4766 14.9999 19.4766H16.9687V21.4453C16.9687 21.5484 17.0531 21.6328 17.1562 21.6328H18.4687C18.5718 21.6328 18.6562 21.5484 18.6562 21.4453V19.4766H20.6249C20.7281 19.4766 20.8124 19.3922 20.8124 19.2891V17.9766C20.8124 17.8734 20.7281 17.7891 20.6249 17.7891Z" fill="#1890FF"/>
        </g>
    </symbol>
    <symbol id="feeling" viewBox="0 0 24 24">
        <g>
            <path d="M12 1.5C6.20156 1.5 1.5 6.20156 1.5 12C1.5 17.7984 6.20156 22.5 12 22.5C17.7984 22.5 22.5 17.7984 22.5 12C22.5 6.20156 17.7984 1.5 12 1.5ZM12 20.7188C7.18594 20.7188 3.28125 16.8141 3.28125 12C3.28125 7.18594 7.18594 3.28125 12 3.28125C16.8141 3.28125 20.7188 7.18594 20.7188 12C20.7188 16.8141 16.8141 20.7188 12 20.7188Z"/>
            <path d="M12 3.28125C7.18594 3.28125 3.28125 7.18594 3.28125 12C3.28125 16.8141 7.18594 20.7188 12 20.7188C16.8141 20.7188 20.7188 16.8141 20.7188 12C20.7188 7.18594 16.8141 3.28125 12 3.28125ZM6.75 9.86719C6.75601 9.5728 6.87718 9.29249 7.0875 9.08641C7.29782 8.88034 7.58055 8.76492 7.875 8.76492C8.16945 8.76492 8.45218 8.88034 8.6625 9.08641C8.87282 9.29249 8.99399 9.5728 9 9.86719C8.99399 10.1616 8.87282 10.4419 8.6625 10.648C8.45218 10.854 8.16945 10.9695 7.875 10.9695C7.58055 10.9695 7.29782 10.854 7.0875 10.648C6.87718 10.4419 6.75601 10.1616 6.75 9.86719ZM12 16.2422C9.99609 16.2422 8.35313 14.6648 8.25 12.6891C8.24873 12.6637 8.25264 12.6383 8.26149 12.6144C8.27034 12.5906 8.28395 12.5688 8.30149 12.5504C8.31903 12.532 8.34013 12.5173 8.36351 12.5073C8.3869 12.4973 8.41207 12.4922 8.4375 12.4922H9.56484C9.66328 12.4922 9.74766 12.5672 9.75469 12.6656C9.84375 13.8258 10.8164 14.7422 12 14.7422C13.1836 14.7422 14.1586 13.8258 14.2453 12.6656C14.2523 12.5672 14.3367 12.4922 14.4352 12.4922H15.5625C15.5879 12.4922 15.6131 12.4973 15.6365 12.5073C15.6599 12.5173 15.681 12.532 15.6985 12.5504C15.716 12.5688 15.7297 12.5906 15.7385 12.6144C15.7474 12.6383 15.7513 12.6637 15.75 12.6891C15.6469 14.6648 14.0039 16.2422 12 16.2422ZM16.125 10.9922C15.8306 10.9862 15.5503 10.865 15.3442 10.6547C15.1382 10.4444 15.0227 10.1616 15.0227 9.86719C15.0227 9.57273 15.1382 9.29001 15.3442 9.07969C15.5503 8.86936 15.8306 8.7482 16.125 8.74219C16.4194 8.7482 16.6997 8.86936 16.9058 9.07969C17.1118 9.29001 17.2273 9.57273 17.2273 9.86719C17.2273 10.1616 17.1118 10.4444 16.9058 10.6547C16.6997 10.865 16.4194 10.9862 16.125 10.9922Z" fill="#E6F7FF"/>
            <path d="M6.75 9.86719C6.75 10.1656 6.86853 10.4517 7.0795 10.6627C7.29048 10.8737 7.57663 10.9922 7.875 10.9922C8.17337 10.9922 8.45952 10.8737 8.6705 10.6627C8.88147 10.4517 9 10.1656 9 9.86719C9 9.56882 8.88147 9.28267 8.6705 9.07169C8.45952 8.86071 8.17337 8.74219 7.875 8.74219C7.57663 8.74219 7.29048 8.86071 7.0795 9.07169C6.86853 9.28267 6.75 9.56882 6.75 9.86719ZM15.5625 12.4922H14.4352C14.3367 12.4922 14.2523 12.5672 14.2453 12.6656C14.1586 13.8258 13.1836 14.7422 12 14.7422C10.8164 14.7422 9.84375 13.8258 9.75469 12.6656C9.74766 12.5672 9.66328 12.4922 9.56484 12.4922H8.4375C8.41207 12.4922 8.3869 12.4973 8.36351 12.5073C8.34013 12.5173 8.31903 12.532 8.30149 12.5504C8.28395 12.5688 8.27034 12.5906 8.26149 12.6144C8.25264 12.6383 8.24873 12.6637 8.25 12.6891C8.35312 14.6648 9.99609 16.2422 12 16.2422C14.0039 16.2422 15.6469 14.6648 15.75 12.6891C15.7513 12.6637 15.7474 12.6383 15.7385 12.6144C15.7297 12.5906 15.716 12.5688 15.6985 12.5504C15.681 12.532 15.6599 12.5173 15.6365 12.5073C15.6131 12.4973 15.5879 12.4922 15.5625 12.4922ZM15 9.86719C15 10.1656 15.1185 10.4517 15.3295 10.6627C15.5405 10.8737 15.8266 10.9922 16.125 10.9922C16.4234 10.9922 16.7095 10.8737 16.9205 10.6627C17.1315 10.4517 17.25 10.1656 17.25 9.86719C17.25 9.56882 17.1315 9.28267 16.9205 9.07169C16.7095 8.86071 16.4234 8.74219 16.125 8.74219C15.8266 8.74219 15.5405 8.86071 15.3295 9.07169C15.1185 9.28267 15 9.56882 15 9.86719Z"/>
        </g>
    </symbol>
    <symbol id="points" viewBox="0 0 24 24">
        <g>
            <path d="M4.125 11.9766C4.125 12.1489 4.15895 12.3196 4.22491 12.4788C4.29087 12.6381 4.38755 12.7828 4.50942 12.9046C4.6313 13.0265 4.77599 13.1232 4.93523 13.1892C5.09447 13.2551 5.26514 13.2891 5.4375 13.2891C5.60986 13.2891 5.78053 13.2551 5.93977 13.1892C6.09901 13.1232 6.2437 13.0265 6.36558 12.9046C6.48745 12.7828 6.58413 12.6381 6.65009 12.4788C6.71605 12.3196 6.75 12.1489 6.75 11.9766C6.75 11.8042 6.71605 11.6335 6.65009 11.4743C6.58413 11.3151 6.48745 11.1704 6.36558 11.0485C6.2437 10.9266 6.09901 10.8299 5.93977 10.764C5.78053 10.698 5.60986 10.6641 5.4375 10.6641C5.26514 10.6641 5.09447 10.698 4.93523 10.764C4.77599 10.8299 4.6313 10.9266 4.50942 11.0485C4.38755 11.1704 4.29087 11.3151 4.22491 11.4743C4.15895 11.6335 4.125 11.8042 4.125 11.9766ZM10.6875 11.9766C10.6875 12.3247 10.8258 12.6585 11.0719 12.9046C11.3181 13.1508 11.6519 13.2891 12 13.2891C12.3481 13.2891 12.6819 13.1508 12.9281 12.9046C13.1742 12.6585 13.3125 12.3247 13.3125 11.9766C13.3125 11.6285 13.1742 11.2946 12.9281 11.0485C12.6819 10.8023 12.3481 10.6641 12 10.6641C11.6519 10.6641 11.3181 10.8023 11.0719 11.0485C10.8258 11.2946 10.6875 11.6285 10.6875 11.9766ZM17.25 11.9766C17.25 12.3247 17.3883 12.6585 17.6344 12.9046C17.8806 13.1508 18.2144 13.2891 18.5625 13.2891C18.9106 13.2891 19.2444 13.1508 19.4906 12.9046C19.7367 12.6585 19.875 12.3247 19.875 11.9766C19.875 11.6285 19.7367 11.2946 19.4906 11.0485C19.2444 10.8023 18.9106 10.6641 18.5625 10.6641C18.2144 10.6641 17.8806 10.8023 17.6344 11.0485C17.3883 11.2946 17.25 11.6285 17.25 11.9766Z" fill="#595959"/>
        </g>
    </symbol>
    <symbol id="setting-set" viewBox="0 0 24 14">
        <g>
            <path d="M22.6438 8.55473L21.7483 7.7891C21.7907 7.52934 21.8126 7.2641 21.8126 6.99887C21.8126 6.73363 21.7907 6.4684 21.7483 6.20863L22.6438 5.44301C22.7114 5.38519 22.7597 5.30817 22.7824 5.22221C22.8051 5.13624 22.8011 5.0454 22.771 4.96176L22.7587 4.92621C22.5121 4.23719 22.143 3.59845 21.669 3.04086L21.6444 3.01215C21.5869 2.94454 21.5103 2.89595 21.4246 2.87276C21.339 2.84958 21.2483 2.85289 21.1645 2.88227L20.053 3.27738C19.6429 2.94106 19.1848 2.67582 18.6899 2.48988L18.4753 1.32777C18.4591 1.24033 18.4167 1.15989 18.3537 1.09713C18.2907 1.03437 18.21 0.992262 18.1225 0.976407L18.0856 0.969571C17.3733 0.841055 16.6241 0.841055 15.9118 0.969571L15.8749 0.976407C15.7874 0.992262 15.7068 1.03437 15.6438 1.09713C15.5808 1.15989 15.5383 1.24033 15.5222 1.32777L15.3061 2.49535C14.8152 2.68133 14.3579 2.94642 13.9526 3.28012L12.8329 2.88227C12.7492 2.85266 12.6584 2.84922 12.5727 2.87242C12.487 2.89562 12.4104 2.94436 12.353 3.01215L12.3284 3.04086C11.855 3.59884 11.4859 4.23747 11.2388 4.92621L11.2264 4.96176C11.1649 5.13266 11.2155 5.32406 11.3536 5.44301L12.26 6.21684C12.2177 6.47387 12.1972 6.73637 12.1972 6.9975C12.1972 7.26 12.2177 7.5225 12.26 7.77817L11.3536 8.55199C11.2861 8.60982 11.2377 8.68683 11.215 8.7728C11.1923 8.85876 11.1963 8.9496 11.2264 9.03324L11.2388 9.06879C11.4862 9.75785 11.8526 10.3936 12.3284 10.9541L12.353 10.9829C12.4105 11.0505 12.4871 11.0991 12.5728 11.1222C12.6585 11.1454 12.7491 11.1421 12.8329 11.1127L13.9526 10.7149C14.36 11.0498 14.8153 11.3151 15.3061 11.4997L15.5222 12.6672C15.5383 12.7547 15.5808 12.8351 15.6438 12.8979C15.7068 12.9606 15.7874 13.0027 15.8749 13.0186L15.9118 13.0254C16.6307 13.1546 17.3668 13.1546 18.0856 13.0254L18.1225 13.0186C18.21 13.0027 18.2907 12.9606 18.3537 12.8979C18.4167 12.8351 18.4591 12.7547 18.4753 12.6672L18.6899 11.5051C19.1846 11.3197 19.6452 11.0536 20.053 10.7176L21.1645 11.1127C21.2483 11.1423 21.339 11.1458 21.4247 11.1226C21.5104 11.0994 21.5871 11.0506 21.6444 10.9829L21.669 10.9541C22.1448 10.3922 22.5112 9.75785 22.7587 9.06879L22.771 9.03324C22.8325 8.86508 22.7819 8.67367 22.6438 8.55473ZM20.7776 6.36996C20.8118 6.57641 20.8296 6.78832 20.8296 7.00024C20.8296 7.21215 20.8118 7.42406 20.7776 7.63051L20.6874 8.17875L21.7087 9.05238C21.5539 9.40907 21.3584 9.74672 21.1263 10.0586L19.8575 9.60883L19.4282 9.96156C19.1014 10.2295 18.7378 10.4401 18.344 10.5877L17.8231 10.7832L17.5784 12.1094C17.1923 12.1532 16.8024 12.1532 16.4163 12.1094L16.1716 10.7805L15.6548 10.5823C15.2651 10.4346 14.9028 10.2241 14.5788 9.95746L14.1495 9.60336L12.8725 10.0573C12.6401 9.74418 12.446 9.40649 12.2901 9.05102L13.3223 8.16918L13.2335 7.62231C13.2007 7.41859 13.1829 7.20805 13.1829 7.00024C13.1829 6.79106 13.1993 6.58188 13.2335 6.37816L13.3223 5.83129L12.2901 4.94945C12.4446 4.59262 12.6401 4.25629 12.8725 3.9432L14.1495 4.39711L14.5788 4.04301C14.9028 3.77641 15.2651 3.56586 15.6548 3.4182L16.1729 3.2227L16.4177 1.89379C16.8018 1.85004 17.1942 1.85004 17.5798 1.89379L17.8245 3.21996L18.3454 3.41547C18.7378 3.56313 19.1028 3.77367 19.4296 4.04164L19.8589 4.39438L21.1276 3.94457C21.36 4.25766 21.5542 4.59535 21.71 4.95082L20.6888 5.82445L20.7776 6.36996ZM17.0001 4.45727C15.6712 4.45727 14.5938 5.53461 14.5938 6.86352C14.5938 8.19242 15.6712 9.26977 17.0001 9.26977C18.329 9.26977 19.4063 8.19242 19.4063 6.86352C19.4063 5.53461 18.329 4.45727 17.0001 4.45727ZM18.0829 7.94633C17.9409 8.08876 17.7721 8.2017 17.5863 8.27866C17.4004 8.35562 17.2012 8.39508 17.0001 8.39477C16.5913 8.39477 16.2071 8.23481 15.9173 7.94633C15.7748 7.80431 15.6619 7.63553 15.5849 7.4497C15.508 7.26387 15.4685 7.06465 15.4688 6.86352C15.4688 6.45473 15.6288 6.07055 15.9173 5.7807C16.2071 5.49086 16.5913 5.33227 17.0001 5.33227C17.4089 5.33227 17.7931 5.49086 18.0829 5.7807C18.2253 5.92272 18.3383 6.09151 18.4152 6.27734C18.4922 6.46317 18.5316 6.66238 18.5313 6.86352C18.5313 7.27231 18.3714 7.65649 18.0829 7.94633Z" fill="#8C8C8C"/>
            <circle cx="2" cy="7" r="2" fill="#BFBFBF"/>
        </g>
    </symbol>
    <symbol id="like" viewBox="0 0 14 14">
        <g>
            <path d="M0.75 7.25005V12.9375C0.75 13.2141 0.973437 13.4375 1.25 13.4375H2.26562V6.75005H1.25C0.973437 6.75005 0.75 6.97349 0.75 7.25005ZM12.8422 7.33911C13.1047 6.99224 13.25 6.56724 13.25 6.12505C13.25 5.42349 12.8578 4.75786 12.2266 4.39067C12.0641 4.29535 11.879 4.24519 11.6906 4.24536H7.94219L8.03594 2.32505C8.05937 1.86099 7.89531 1.42036 7.575 1.08442C7.4187 0.918679 7.23 0.786828 7.02061 0.697053C6.81123 0.607279 6.58563 0.561497 6.35781 0.562548C5.54531 0.562548 4.82656 1.10942 4.61094 1.89224L3.27031 6.74849L3.26562 13.436H10.6422C10.7875 13.436 10.9266 13.4079 11.0562 13.3516C11.8 13.0344 12.2797 12.3079 12.2797 11.5016C12.2797 11.3047 12.2516 11.111 12.1953 10.9235C12.4578 10.5766 12.6031 10.1516 12.6031 9.70942C12.6031 9.51255 12.575 9.3188 12.5188 9.1313C12.7812 8.78442 12.9266 8.35942 12.9266 7.91724C12.9266 7.72036 12.8984 7.52661 12.8422 7.33911ZM11.8188 6.79692L11.4766 7.0938L11.6953 7.49224C11.7669 7.62297 11.804 7.76976 11.8031 7.9188C11.8031 8.17661 11.6922 8.42192 11.4969 8.59067L11.1547 8.88755L11.3719 9.28442C11.4434 9.41516 11.4805 9.56195 11.4797 9.71099C11.4797 9.9688 11.3687 10.2141 11.1734 10.3829L10.8313 10.6797L11.0484 11.0766C11.12 11.2073 11.1571 11.3541 11.1562 11.5032C11.1562 11.8532 10.95 12.1688 10.6313 12.3125H4.39062V6.9188C4.68125 5.8688 5.11562 4.2938 5.69531 2.19224C5.73581 2.04809 5.82198 1.92098 5.94087 1.82998C6.05977 1.73898 6.20497 1.689 6.35469 1.68755C6.47188 1.68599 6.58906 1.72192 6.68437 1.79224C6.83906 1.90786 6.92188 2.08286 6.9125 2.2688L6.7625 5.3688H11.675C11.9531 5.53911 12.125 5.82661 12.125 6.12505C12.125 6.38286 12.0141 6.62817 11.8188 6.79692Z"/>
        </g>
    </symbol>
    <symbol id="share" viewBox="0 0 18 20">
        <g>
            <path d="M14.625 13.5625C13.957 13.5625 13.3406 13.7969 12.8578 14.1883L8.00156 10.675C8.08288 10.2287 8.08288 9.77133 8.00156 9.325L12.8578 5.81172C13.3406 6.20312 13.957 6.4375 14.625 6.4375C16.1766 6.4375 17.4375 5.17656 17.4375 3.625C17.4375 2.07344 16.1766 0.8125 14.625 0.8125C13.0734 0.8125 11.8125 2.07344 11.8125 3.625C11.8125 3.89687 11.85 4.15703 11.9227 4.40547L7.31016 7.74531C6.62578 6.83828 5.53828 6.25 4.3125 6.25C2.24062 6.25 0.5625 7.92812 0.5625 10C0.5625 12.0719 2.24062 13.75 4.3125 13.75C5.53828 13.75 6.62578 13.1617 7.31016 12.2547L11.9227 15.5945C11.85 15.843 11.8125 16.1055 11.8125 16.375C11.8125 17.9266 13.0734 19.1875 14.625 19.1875C16.1766 19.1875 17.4375 17.9266 17.4375 16.375C17.4375 14.8234 16.1766 13.5625 14.625 13.5625ZM14.625 2.40625C15.2977 2.40625 15.8438 2.95234 15.8438 3.625C15.8438 4.29766 15.2977 4.84375 14.625 4.84375C13.9523 4.84375 13.4062 4.29766 13.4062 3.625C13.4062 2.95234 13.9523 2.40625 14.625 2.40625ZM4.3125 12.0625C3.17578 12.0625 2.25 11.1367 2.25 10C2.25 8.86328 3.17578 7.9375 4.3125 7.9375C5.44922 7.9375 6.375 8.86328 6.375 10C6.375 11.1367 5.44922 12.0625 4.3125 12.0625ZM14.625 17.5938C13.9523 17.5938 13.4062 17.0477 13.4062 16.375C13.4062 15.7023 13.9523 15.1562 14.625 15.1562C15.2977 15.1562 15.8438 15.7023 15.8438 16.375C15.8438 17.0477 15.2977 17.5938 14.625 17.5938Z" fill="#595959"/>
        </g>
    </symbol>

</svg>










