<svg width="24" height="24" viewBox="0 0 24 24" fill="none" xmlns="http://www.w3.org/2000/svg">
<path d="M12.0001 1.5C6.20162 1.5 1.50006 6.20156 1.50006 12C1.50006 17.7984 6.20162 22.5 12.0001 22.5C17.7985 22.5 22.5001 17.7984 22.5001 12C22.5001 6.20156 17.7985 1.5 12.0001 1.5ZM12.0001 20.7188C7.186 20.7188 3.28131 16.8141 3.28131 12C3.28131 7.18594 7.186 3.28125 12.0001 3.28125C16.8141 3.28125 20.7188 7.18594 20.7188 12C20.7188 16.8141 16.8141 20.7188 12.0001 20.7188Z" fill="#002766"/>
<path d="M10.8751 7.875C10.8751 8.17337 10.9936 8.45952 11.2046 8.6705C11.4155 8.88147 11.7017 9 12.0001 9C12.2984 9 12.5846 8.88147 12.7956 8.6705C13.0065 8.45952 13.1251 8.17337 13.1251 7.875C13.1251 7.57663 13.0065 7.29048 12.7956 7.0795C12.5846 6.86853 12.2984 6.75 12.0001 6.75C11.7017 6.75 11.4155 6.86853 11.2046 7.0795C10.9936 7.29048 10.8751 7.57663 10.8751 7.875V7.875ZM12.5626 10.5H11.4376C11.3344 10.5 11.2501 10.5844 11.2501 10.6875V17.0625C11.2501 17.1656 11.3344 17.25 11.4376 17.25H12.5626C12.6657 17.25 12.7501 17.1656 12.7501 17.0625V10.6875C12.7501 10.5844 12.6657 10.5 12.5626 10.5Z" fill="#002766"/>
</svg>
