<svg width="22" height="22" viewBox="0 0 22 22" fill="none" xmlns="http://www.w3.org/2000/svg">
<path d="M9.87516 11C9.87516 11.2984 9.99369 11.5845 10.2047 11.7955C10.4156 12.0065 10.7018 12.125 11.0002 12.125C11.2985 12.125 11.5847 12.0065 11.7957 11.7955C12.0066 11.5845 12.1252 11.2984 12.1252 11C12.1252 10.7016 12.0066 10.4155 11.7957 10.2045C11.5847 9.99353 11.2985 9.875 11.0002 9.875C10.7018 9.875 10.4156 9.99353 10.2047 10.2045C9.99369 10.4155 9.87516 10.7016 9.87516 11V11ZM14.5627 11C14.5627 11.2984 14.6812 11.5845 14.8922 11.7955C15.1031 12.0065 15.3893 12.125 15.6877 12.125C15.986 12.125 16.2722 12.0065 16.4832 11.7955C16.6941 11.5845 16.8127 11.2984 16.8127 11C16.8127 10.7016 16.6941 10.4155 16.4832 10.2045C16.2722 9.99353 15.986 9.875 15.6877 9.875C15.3893 9.875 15.1031 9.99353 14.8922 10.2045C14.6812 10.4155 14.5627 10.7016 14.5627 11ZM5.18766 11C5.18766 11.2984 5.30619 11.5845 5.51717 11.7955C5.72815 12.0065 6.0143 12.125 6.31266 12.125C6.61103 12.125 6.89718 12.0065 7.10816 11.7955C7.31914 11.5845 7.43766 11.2984 7.43766 11C7.43766 10.7016 7.31914 10.4155 7.10816 10.2045C6.89718 9.99353 6.61103 9.875 6.31266 9.875C6.0143 9.875 5.72815 9.99353 5.51717 10.2045C5.30619 10.4155 5.18766 10.7016 5.18766 11V11ZM20.6845 6.93125C20.1549 5.67266 19.3955 4.54297 18.4275 3.57266C17.4663 2.60796 16.3252 1.84114 15.0689 1.31563C13.7799 0.774219 12.4111 0.5 11.0002 0.5H10.9533C9.53298 0.507031 8.15719 0.788281 6.86344 1.34141C5.61788 1.87232 4.4875 2.64049 3.53532 3.60312C2.57673 4.57109 1.82438 5.69609 1.30407 6.95C0.765007 8.24844 0.493132 9.62891 0.500163 11.0492C0.508116 12.6769 0.893191 14.2806 1.62516 15.7344V19.2969C1.62516 19.5828 1.73875 19.857 1.94094 20.0592C2.14313 20.2614 2.41735 20.375 2.70329 20.375H6.26813C7.72195 21.107 9.32562 21.492 10.9533 21.5H11.0025C12.4064 21.5 13.7681 21.2281 15.0502 20.6961C16.3001 20.1768 17.437 19.419 18.397 18.4648C19.365 17.5062 20.1267 16.3859 20.6588 15.1367C21.2119 13.843 21.4931 12.4672 21.5002 11.0469C21.5072 9.61953 21.2306 8.23437 20.6845 6.93125V6.93125ZM17.1431 17.1969C15.5002 18.8234 13.3205 19.7188 11.0002 19.7188H10.9603C9.54704 19.7117 8.14313 19.3602 6.90329 18.6992L6.70641 18.5938H3.40641V15.2938L3.30094 15.0969C2.64001 13.857 2.28844 12.4531 2.28141 11.0398C2.27204 8.70313 3.16501 6.50937 4.80329 4.85703C6.43923 3.20469 8.62594 2.29063 10.9627 2.28125H11.0025C12.1744 2.28125 13.3111 2.50859 14.3822 2.95859C15.4275 3.39687 16.365 4.02734 17.1713 4.83359C17.9752 5.6375 18.608 6.57734 19.0463 7.62266C19.5009 8.70547 19.7283 9.85391 19.7236 11.0398C19.7095 13.3742 18.7931 15.5609 17.1431 17.1969V17.1969Z" fill="#002766"/>
</svg>
