<svg width="16" height="16" viewBox="0 0 16 16" fill="none" xmlns="http://www.w3.org/2000/svg">
<path d="M14.7679 12.9141C14.3995 12.0414 13.8648 11.2486 13.1937 10.5801C12.5247 9.90959 11.7321 9.37501 10.8597 9.00586C10.8519 9.00195 10.8441 9 10.8363 8.99609C12.0531 8.11719 12.8441 6.68555 12.8441 5.07031C12.8441 2.39453 10.6762 0.226562 8.00037 0.226562C5.32459 0.226562 3.15662 2.39453 3.15662 5.07031C3.15662 6.68555 3.94763 8.11719 5.16443 8.99805C5.15662 9.00195 5.14881 9.00391 5.14099 9.00781C4.26599 9.37695 3.48084 9.90625 2.80701 10.582C2.13652 11.2511 1.60194 12.0437 1.23279 12.916C0.870139 13.77 0.674553 14.6856 0.656619 15.6133C0.656098 15.6341 0.659754 15.6549 0.667373 15.6743C0.674991 15.6937 0.686418 15.7114 0.700979 15.7263C0.715541 15.7412 0.732942 15.7531 0.752159 15.7612C0.771375 15.7693 0.792017 15.7734 0.812869 15.7734H1.98474C2.07068 15.7734 2.13904 15.7051 2.14099 15.6211C2.18006 14.1133 2.78553 12.7012 3.85584 11.6309C4.96326 10.5234 6.43396 9.91406 8.00037 9.91406C9.56678 9.91406 11.0375 10.5234 12.1449 11.6309C13.2152 12.7012 13.8207 14.1133 13.8597 15.6211C13.8617 15.707 13.9301 15.7734 14.016 15.7734H15.1879C15.2087 15.7734 15.2294 15.7693 15.2486 15.7612C15.2678 15.7531 15.2852 15.7412 15.2998 15.7263C15.3143 15.7114 15.3257 15.6937 15.3334 15.6743C15.341 15.6549 15.3446 15.6341 15.3441 15.6133C15.3246 14.6797 15.1312 13.7715 14.7679 12.9141ZM8.00037 8.42969C7.10388 8.42969 6.26013 8.08008 5.62537 7.44531C4.9906 6.81055 4.64099 5.9668 4.64099 5.07031C4.64099 4.17383 4.9906 3.33008 5.62537 2.69531C6.26013 2.06055 7.10388 1.71094 8.00037 1.71094C8.89685 1.71094 9.7406 2.06055 10.3754 2.69531C11.0101 3.33008 11.3597 4.17383 11.3597 5.07031C11.3597 5.9668 11.0101 6.81055 10.3754 7.44531C9.7406 8.08008 8.89685 8.42969 8.00037 8.42969Z" fill="white"/>
</svg>
